<svg class="svg-icon" style="width: 1em; height: 1em;vertical-align: middle;fill: currentColor;overflow: hidden;" viewBox="0 0 1024 1024" version="1.1" xmlns="http://www.w3.org/2000/svg"><path d="M116.363636 628.363636c-25.6 0-46.545455-20.945455-46.545454-46.545454s20.945455-46.545455 46.545454-46.545455h302.545455c25.6 0 46.545455 20.945455 46.545454 46.545455s-20.945455 46.545455-46.545454 46.545454H116.363636zM512 628.363636c-25.6 0-46.545455-20.945455-46.545455-46.545454s20.945455-46.545455 46.545455-46.545455h209.454545c25.6 0 46.545455 20.945455 46.545455 46.545455s-20.945455 46.545455-46.545455 46.545454h-209.454545zM814.545455 628.363636c-25.6 0-46.545455-20.945455-46.545455-46.545454s20.945455-46.545455 46.545455-46.545455h93.090909c25.6 0 46.545455 20.945455 46.545454 46.545455s-20.945455 46.545455-46.545454 46.545454h-93.090909z" fill="#DF3540" /><path d="M186.181818 977.454545c-65.163636 0-116.363636-51.2-116.363636-116.363636 0-25.6 20.945455-46.545455 46.545454-46.545454h791.272728c25.6 0 46.545455 20.945455 46.545454 46.545454 0 65.163636-51.2 116.363636-116.363636 116.363636H186.181818zM116.363636 372.363636c-25.6 0-46.545455-20.945455-46.545454-46.545454C69.818182 172.218182 195.490909 46.545455 349.090909 46.545455h325.818182c153.6 0 279.272727 125.672727 279.272727 279.272727 0 25.6-20.945455 46.545455-46.545454 46.545454H116.363636z" fill="#F6B545" /><path d="M907.636364 395.636364H116.363636c-39.563636 0-69.818182-30.254545-69.818181-69.818182C46.545455 158.254545 181.527273 23.272727 349.090909 23.272727h325.818182c167.563636 0 302.545455 134.981818 302.545454 302.545455 0 39.563636-30.254545 69.818182-69.818181 69.818182zM349.090909 69.818182C207.127273 69.818182 93.090909 183.854545 93.090909 325.818182c0 13.963636 9.309091 23.272727 23.272727 23.272727h791.272728c13.963636 0 23.272727-9.309091 23.272727-23.272727 0-141.963636-114.036364-256-256-256H349.090909z" fill="#014463" /><path d="M81.454545 814.545455C48.872727 814.545455 23.272727 788.945455 23.272727 756.363636S48.872727 698.181818 81.454545 698.181818h861.09091c32.581818 0 58.181818 25.6 58.181818 58.181818S975.127273 814.545455 942.545455 814.545455h-861.09091z" fill="#F04B4D" /><path d="M58.181818 698.181818c-18.618182 0-34.909091-16.290909-34.909091-34.909091S39.563636 628.363636 58.181818 628.363636h907.636364c18.618182 0 34.909091 16.290909 34.909091 34.909091s-16.290909 34.909091-34.909091 34.909091h-907.636364z" fill="#3BB54A" /><path d="M1024 663.272727c0-30.254545-23.272727-53.527273-51.2-58.181818 2.327273-6.981818 4.654545-16.290909 4.654545-23.272727 0-39.563636-30.254545-69.818182-69.818181-69.818182h-93.090909c-18.618182 0-34.909091 6.981818-46.545455 18.618182-11.636364-11.636364-27.927273-18.618182-46.545455-18.618182h-209.454545c-18.618182 0-34.909091 6.981818-46.545455 18.618182-11.636364-11.636364-27.927273-18.618182-46.545454-18.618182H116.363636c-39.563636 0-69.818182 30.254545-69.818181 69.818182 0 9.309091 2.327273 16.290909 4.654545 23.272727C23.272727 609.745455 0 633.018182 0 663.272727c0 16.290909 6.981818 32.581818 18.618182 41.890909-11.636364 13.963636-18.618182 32.581818-18.618182 51.2C0 800.581818 37.236364 837.818182 81.454545 837.818182h861.09091c44.218182 0 81.454545-37.236364 81.454545-81.454546 0-18.618182-6.981818-37.236364-18.618182-51.2 11.636364-9.309091 18.618182-25.6 18.618182-41.890909zM814.545455 558.545455h93.090909c13.963636 0 23.272727 9.309091 23.272727 23.272727s-9.309091 23.272727-23.272727 23.272727h-93.090909c-13.963636 0-23.272727-9.309091-23.272728-23.272727s9.309091-23.272727 23.272728-23.272727z m-302.545455 0h209.454545c13.963636 0 23.272727 9.309091 23.272728 23.272727s-9.309091 23.272727-23.272728 23.272727h-209.454545c-13.963636 0-23.272727-9.309091-23.272727-23.272727s9.309091-23.272727 23.272727-23.272727zM116.363636 558.545455h302.545455c13.963636 0 23.272727 9.309091 23.272727 23.272727s-9.309091 23.272727-23.272727 23.272727H116.363636c-13.963636 0-23.272727-9.309091-23.272727-23.272727s9.309091-23.272727 23.272727-23.272727z m-58.181818 93.090909h907.636364c6.981818 0 11.636364 4.654545 11.636363 11.636363s-4.654545 11.636364-11.636363 11.636364h-907.636364c-6.981818 0-11.636364-4.654545-11.636363-11.636364s4.654545-11.636364 11.636363-11.636363z m884.363637 139.636363h-861.09091c-18.618182 0-34.909091-16.290909-34.90909-34.909091S62.836364 721.454545 81.454545 721.454545h861.09091c18.618182 0 34.909091 16.290909 34.90909 34.909091s-16.290909 34.909091-34.90909 34.909091z" fill="#014463" /><path d="M58.181818 442.181818c-18.618182 0-34.909091-16.290909-34.909091-34.909091S39.563636 372.363636 58.181818 372.363636h907.636364c18.618182 0 34.909091 16.290909 34.909091 34.909091s-16.290909 34.909091-34.909091 34.909091h-907.636364z" fill="#3BB54A" /><path d="M965.818182 651.636364H693.527273c2.327273 0 4.654545 4.654545 4.654545 11.636363s-2.327273 11.636364-4.654545 11.636364h272.290909c6.981818 0 11.636364-4.654545 11.636363-11.636364s-4.654545-11.636364-11.636363-11.636363zM965.818182 395.636364H693.527273c2.327273 0 4.654545 4.654545 4.654545 11.636363s-2.327273 11.636364-4.654545 11.636364h272.290909c6.981818 0 11.636364-4.654545 11.636363-11.636364s-4.654545-11.636364-11.636363-11.636363z" fill="#1E9647" /><path d="M314.181818 628.363636c-9.309091 0-18.618182-4.654545-25.6-11.636363-6.981818-6.981818-9.309091-13.963636-9.309091-23.272728V558.545455c0-13.963636-9.309091-23.272727-23.272727-23.272728H93.090909c-25.6 0-46.545455-20.945455-46.545454-46.545454s20.945455-46.545455 46.545454-46.545455h837.818182c25.6 0 46.545455 20.945455 46.545454 46.545455s-20.945455 46.545455-46.545454 46.545454H474.763636c-20.945455 0-41.890909 6.981818-58.181818 20.945455l-81.454545 65.163636c-6.981818 4.654545-13.963636 6.981818-20.945455 6.981818z" fill="#FFCB5B" /><path d="M1024 407.272727c0-32.581818-25.6-58.181818-58.181818-58.181818h-907.636364C25.6 349.090909 0 374.690909 0 407.272727c0 20.945455 11.636364 41.890909 30.254545 51.2-4.654545 9.309091-6.981818 18.618182-6.981818 30.254546 0 39.563636 30.254545 69.818182 69.818182 69.818182h162.909091v34.90909c0 32.581818 25.6 58.181818 58.181818 58.181819 13.963636 0 25.6-4.654545 37.236364-11.636364l81.454545-65.163636c11.636364-9.309091 27.927273-16.290909 44.218182-16.290909H930.909091c39.563636 0 69.818182-30.254545 69.818182-69.818182 0-11.636364-2.327273-20.945455-6.981818-30.254546 18.618182-9.309091 30.254545-30.254545 30.254545-51.2zM58.181818 395.636364h907.636364c6.981818 0 11.636364 4.654545 11.636363 11.636363s-4.654545 11.636364-11.636363 11.636364h-907.636364c-6.981818 0-11.636364-4.654545-11.636363-11.636364s4.654545-11.636364 11.636363-11.636363zM930.909091 512H474.763636c-25.6 0-51.2 9.309091-72.145454 25.6l-81.454546 65.163636c-6.981818 4.654545-18.618182 0-18.618181-9.309091V558.545455c0-25.6-20.945455-46.545455-46.545455-46.545455H93.090909c-13.963636 0-23.272727-9.309091-23.272727-23.272727s9.309091-23.272727 23.272727-23.272728h837.818182c13.963636 0 23.272727 9.309091 23.272727 23.272728s-9.309091 23.272727-23.272727 23.272727z" fill="#004463" /><path d="M930.909091 465.454545H688.872727c4.654545 0 9.309091 9.309091 9.309091 23.272728h-230.4c-25.6 0-51.2 9.309091-72.145454 25.6l-93.090909 79.127272c0 9.309091 11.636364 13.963636 18.618181 9.309091l81.454546-65.163636c20.945455-16.290909 46.545455-25.6 72.145454-25.6H930.909091c13.963636 0 23.272727-9.309091 23.272727-23.272727s-9.309091-23.272727-23.272727-23.272728z" fill="#F4A634" /><path d="M232.727273 488.727273H69.818182c0 13.963636 9.309091 23.272727 23.272727 23.272727h162.909091c6.981818 0 13.963636 2.327273 18.618182 4.654545-6.981818-16.290909-23.272727-27.927273-41.890909-27.927272z" fill="#F6B545" /><path d="M442.181818 162.909091m-23.272727 0a23.272727 23.272727 0 1 0 46.545454 0 23.272727 23.272727 0 1 0-46.545454 0Z" fill="#E58824" /><path d="M302.545455 162.909091m-23.272728 0a23.272727 23.272727 0 1 0 46.545455 0 23.272727 23.272727 0 1 0-46.545455 0Z" fill="#E58824" /><path d="M232.727273 256m-23.272728 0a23.272727 23.272727 0 1 0 46.545455 0 23.272727 23.272727 0 1 0-46.545455 0Z" fill="#E58824" /><path d="M372.363636 256m-23.272727 0a23.272727 23.272727 0 1 0 46.545455 0 23.272727 23.272727 0 1 0-46.545455 0Z" fill="#E58824" /><path d="M581.818182 162.909091m-23.272727 0a23.272727 23.272727 0 1 0 46.545454 0 23.272727 23.272727 0 1 0-46.545454 0Z" fill="#E58824" /><path d="M512 256m-23.272727 0a23.272727 23.272727 0 1 0 46.545454 0 23.272727 23.272727 0 1 0-46.545454 0Z" fill="#E58824" /><path d="M942.545455 721.454545H705.163636c2.327273 0 2.327273 2.327273 4.654546 2.327273 11.636364 18.618182-4.654545 44.218182-25.6 44.218182H48.872727c4.654545 13.963636 18.618182 23.272727 32.581818 23.272727h861.09091c18.618182 0 34.909091-16.290909 34.90909-34.909091s-16.290909-34.909091-34.90909-34.909091z" fill="#DE333F" /><path d="M907.636364 837.818182H116.363636c13.963636 13.963636 34.909091 23.272727 55.854546 23.272727H651.636364c44.218182 0 46.545455 69.818182 2.327272 69.818182H139.636364c-4.654545 0-11.636364 0-16.290909-2.327273C139.636364 944.872727 162.909091 954.181818 186.181818 954.181818h651.636364c51.2 0 93.090909-41.890909 93.090909-93.090909 0-4.654545-2.327273-9.309091-4.654546-13.963636-4.654545-4.654545-11.636364-9.309091-18.618181-9.309091z" fill="#F19A22" /><path d="M837.818182 1000.727273H186.181818c-76.8 0-139.636364-62.836364-139.636363-139.636364 0-39.563636 30.254545-69.818182 69.818181-69.818182h791.272728c39.563636 0 69.818182 30.254545 69.818181 69.818182 0 76.8-62.836364 139.636364-139.636363 139.636364zM116.363636 837.818182c-13.963636 0-23.272727 9.309091-23.272727 23.272727 0 51.2 41.890909 93.090909 93.090909 93.090909h651.636364c51.2 0 93.090909-41.890909 93.090909-93.090909 0-13.963636-9.309091-23.272727-23.272727-23.272727H116.363636z" fill="#014463" /><path d="M781.963636 93.090909h-88.436363c-32.581818 0-55.854545 30.254545-44.218182 60.509091 11.636364 34.909091 20.945455 76.8 23.272727 123.345455 2.327273 25.6-18.618182 48.872727-46.545454 48.872727H93.090909c0 13.963636 9.309091 23.272727 23.272727 23.272727h791.272728c13.963636 0 23.272727-11.636364 23.272727-23.272727 0-102.4-62.836364-193.163636-148.945455-232.727273z" fill="#F19A22" /><path d="M721.454545 162.909091m-23.272727 0a23.272727 23.272727 0 1 0 46.545455 0 23.272727 23.272727 0 1 0-46.545455 0Z" fill="#E58824" /><path d="M791.272727 256m-23.272727 0a23.272727 23.272727 0 1 0 46.545455 0 23.272727 23.272727 0 1 0-46.545455 0Z" fill="#E58824" /><path d="M651.636364 256m-23.272728 0a23.272727 23.272727 0 1 0 46.545455 0 23.272727 23.272727 0 1 0-46.545455 0Z" fill="#E58824" /></svg>